<svg xmlns="http://www.w3.org/2000/svg" style="display:none">

    <symbol id="icon-news" viewBox="0 0 24 24">
        <path d="M4 4h16v2H4V4zm0 4h10v2H4V8zm0 4h16v2H4v-2zm0 4h10v2H4v-2z"/>
    </symbol>

    <symbol id="icon-msg" viewBox="0 0 24 24">
        <path d="M20 2H4a2 2 0 0 0-2 2v18l4-4h14a2 2 0 0 0 2-2V4a2 2 0 0 0-2-2z"/>
    </symbol>

    <symbol id="icon-friends" viewBox="0 0 24 24">
        <path d="M12 12c2.7 0 5-2.3 5-5s-2.3-5-5-5-5 2.3-5 5 2.3 5 5 5zm0 2c-3.3 0-10 1.7-10 5v3h20v-3c0-3.3-6.7-5-10-5z"/>
    </symbol>

    <symbol id="icon-groups" viewBox="0 0 24 24">
        <path d="M16 11c1.7 0 3-1.3 3-3s-1.3-3-3-3-3 1.3-3 3 1.3 3 3 3zm-8 0c1.7 0 3-1.3 3-3S9.7 5 8 5 5 6.3 5 8s1.3 3 3 3zm0 2c-2.7 0-8 1.3-8 4v3h8v-3c0-1.6.6-3 1.7-4.2C8.6 12.3 7.2 13 6 13zm8 0c-1.2 0-2.6.3-3.7 1.8 1.1 1.2 1.7 2.6 1.7 4.2v3h8v-3c0-2.7-5.3-4-8-4z"/>
    </symbol>

    <symbol id="icon-photos" viewBox="0 0 24 24">
        <path d="M21 5H3a2 2 0 0 0-2 2v12a2 2 0 0 0 2 2h18a2 2 0 0 0 2-2V7a2 2 0 0 0-2-2zm-9 3l3 4 4-5 4 6v5H3v-3l5-7 3 4z"/>
    </symbol>

</svg>
