<?xml version="1.0" encoding="utf-8"?>
<!DOCTYPE svg PUBLIC "-//W3C//DTD SVG 1.0//EN" "http://www.w3.org/TR/2001/REC-SVG-20010904/DTD/svg10.dtd">
<svg version="1.0" xmlns="http://www.w3.org/2000/svg" width="836px" height="836px" viewBox="0 0 836 836" preserveAspectRatio="xMidYMid meet">
 <g fill="#5969fc">
  <path d="M201 827.4 c-0.8 -0.1 -5 -0.6 -9.3 -0.9 -4.2 -0.4 -7.5 -1 -7.3 -1.4 0.3 -0.4 -0.7 -0.6 -2.2 -0.3 -2.6 0.3 -24.8 -3.7 -32.5 -6 -2.6 -0.8 -3.4 -1.4 -2.5 -2 0.8 -0.5 0.4 -0.6 -1.2 -0.3 -1.6 0.4 -6 -0.6 -11.5 -2.5 -5 -1.8 -9.8 -3.4 -10.7 -3.7 -1 -0.3 -1.5 -0.9 -1.2 -1.4 0.3 -0.5 -0.1 -0.6 -0.8 -0.4 -1.7 0.7 -19 -7.7 -28.8 -14 -11.2 -7.2 -23.1 -16.6 -22.3 -17.8 0.3 -0.6 0.1 -0.7 -0.5 -0.3 -2.1 1.3 -30 -29.3 -28.7 -31.5 0.3 -0.4 -0.1 -0.9 -0.9 -1.2 -3.5 -1.4 -23.1 -39.2 -22.2 -43 0.2 -0.9 0.1 -1.5 -0.3 -1.2 -1.6 0.9 -10.6 -30.5 -9.7 -33.8 0.2 -1 0.2 -1.6 -0.2 -1.2 -0.9 0.8 -2.9 -11.5 -4.2 -26 -0.8 -8.4 -1 -77.7 -0.8 -233.5 0.3 -202.6 0.5 -222.3 2.1 -230.5 2.6 -14.3 6.8 -30.5 7.9 -30.5 0.5 0 0.7 -0.4 0.3 -1 -0.8 -1.3 5.8 -18.6 11.3 -29.5 5.7 -11.5 14.1 -24.7 15.3 -23.9 0.5 0.3 0.6 -0.1 0.4 -0.8 -0.3 -0.8 2.5 -5.2 6.3 -9.8 4.9 -6.2 7.3 -8.4 8.7 -8.2 1.3 0.2 1.6 0 0.8 -0.5 -1.6 -1.1 3.3 -7.6 5 -6.6 0.7 0.3 0.9 0.2 0.4 -0.2 -0.7 -0.8 4.9 -7.5 6.3 -7.5 0.4 0 3.1 -2.3 6.1 -5 3 -2.8 6 -4.8 6.6 -4.5 0.7 0.2 1.2 -0.1 1 -0.7 -0.2 -1.1 12.8 -10.3 19.6 -13.9 2.1 -1.1 4.3 -1.7 4.9 -1.3 0.7 0.4 0.8 0.3 0.4 -0.4 -1.3 -2.1 34.8 -17 38.1 -15.8 0.8 0.3 1.2 0.2 0.9 -0.2 -0.5 -0.9 12.5 -4.3 26.9 -7 8.2 -1.5 27.7 -1.7 219 -1.9 137.8 -0.2 209.5 0 208.5 0.7 -1.2 0.8 -1.1 1 0.8 1 1.3 0 2 -0.4 1.7 -1 -0.4 -0.7 6.8 -1 21 -1 12.6 0 21.4 0.4 21.1 0.9 -0.4 0.5 1.1 0.7 3.4 0.4 6.3 -0.9 31.4 3.3 30.3 5 -0.3 0.6 -0.1 0.7 0.6 0.3 0.7 -0.5 4.4 0 8.3 0.9 4.6 1.2 6.5 2 5.6 2.6 -0.8 0.5 0 0.8 2.3 0.7 4.3 -0.1 21.1 6.1 20.2 7.6 -0.4 0.5 0.1 0.7 0.9 0.3 2.3 -0.8 16.1 6 15.2 7.5 -0.5 0.7 -0.2 0.9 0.8 0.6 1.7 -0.7 11.8 4.7 11.8 6.3 0 0.6 0.4 0.8 0.9 0.5 1.1 -0.7 10.7 6.2 10.3 7.5 -0.1 0.6 0.2 0.8 0.8 0.4 1.5 -0.9 10.2 6.4 9.4 7.7 -0.4 0.7 -0.2 0.8 0.4 0.4 0.7 -0.4 1.2 -0.2 1.2 0.5 0 0.7 0.3 0.9 0.7 0.5 1.2 -1.1 15.2 13.5 14.6 15.3 -0.4 1.3 -0.3 1.3 0.5 0.2 0.8 -1 2.4 0.4 7.1 6.3 8.8 11.2 17.8 24.7 15.2 23.2 -1 -0.7 -1.1 -0.4 -0.2 1.3 0.7 1.1 1.4 2.1 1.7 2.1 0.3 0 0.2 -0.5 -0.1 -1 -0.3 -0.6 -0.4 -1 -0.1 -1 0.3 0 2.4 3.6 4.6 8.1 2.3 4.4 3.6 7.8 3.1 7.4 -0.6 -0.3 -1.1 0.1 -1.1 1 0 1.1 0.5 1.5 1.4 1.2 1 -0.4 2.4 1.8 4.9 8.1 5.6 14 12.7 40.2 9.8 36.2 -0.9 -1.2 -1 -1 -0.7 1 0.3 1.4 0.5 3 0.6 3.5 0.1 0.6 0.6 0.1 1.1 -1 0.7 -1.6 0.9 -1.4 0.6 1.3 -0.2 1.7 0 3.2 0.3 3.2 0.4 0 1.3 3.7 2.1 8.2 1.7 11.1 2.6 443.2 0.9 460.3 -1.5 15.7 -4 29.8 -5.4 31 -0.6 0.6 -1.2 3 -1.2 5.5 -0.1 4.9 -4.3 19 -5.7 19 -0.4 0 -0.6 0.4 -0.3 0.8 1.9 3.2 -20 47.2 -23.6 47.2 -0.5 0 -0.7 0.4 -0.4 0.8 0.8 1.3 -13.4 18.3 -14.6 17.6 -0.6 -0.4 -0.8 -0.3 -0.5 0.3 0.8 1.2 -13.8 15.9 -15.3 15.6 -0.6 -0.2 -0.9 0.1 -0.7 0.5 0.5 1.9 -18.7 15.7 -20.4 14.6 -0.7 -0.4 -0.9 -0.3 -0.6 0.4 0.9 1.3 -8.2 6.6 -11 6.4 -1.2 -0.1 -2.5 0.3 -2.8 0.8 -0.4 0.6 0.1 0.7 1.2 0.3 3.7 -1.3 0.4 0.8 -6.5 4.2 -4.2 2 -7.8 3.2 -8.8 2.8 -1.1 -0.4 -1.5 -0.2 -1.1 0.4 0.7 1.1 -7.1 4.6 -8.4 3.7 -0.5 -0.3 -0.9 -0.1 -0.9 0.4 0 1.3 -9.7 4.2 -11.7 3.5 -1 -0.4 -1.4 -0.2 -1 0.4 1.4 2.2 -30 8.5 -50.8 10.3 -10.8 0.9 -438.3 1.4 -442.5 0.4z m374.8 -220.1 c-2.1 -0.2 -5.7 -0.2 -8 0 -2.4 0.2 -0.7 0.4 3.7 0.4 4.4 0 6.3 -0.2 4.3 -0.4z m8.2 -1 c0 0.4 0.7 0.7 1.6 0.7 0.8 0 1.3 -0.4 1 -0.9 -0.3 -0.4 3.1 -1.1 7.6 -1.5 4.6 -0.4 13.8 -1.8 20.7 -3.1 6.8 -1.3 12.8 -2.2 13.2 -1.9 0.5 0.3 0.9 0.1 0.9 -0.4 0 -0.6 2.4 -1.6 5.3 -2.2 2.8 -0.7 8 -2.3 11.4 -3.6 3.4 -1.3 7 -2.1 8 -1.8 1.3 0.4 1.4 0.3 0.5 -0.3 -0.9 -0.7 -0.1 -1.4 2.9 -2.6 2.3 -0.9 4.6 -1.4 5.2 -1 0.6 0.3 0.7 0.2 0.4 -0.4 -0.3 -0.5 1.4 -1.9 3.9 -3.1 2.5 -1.3 4.3 -1.8 3.9 -1.2 -0.3 0.5 -0.1 1 0.4 1 0.6 0 1.1 -0.7 1.1 -1.5 0 -0.8 0.5 -1.5 1.1 -1.5 0.5 0 0.7 0.5 0.3 1.2 -0.4 0.7 -0.3 0.8 0.5 0.4 0.6 -0.4 0.9 -1.1 0.6 -1.6 -0.6 -1 6.6 -5.6 8 -5.2 0.5 0.2 0.7 0 0.2 -0.4 -0.4 -0.4 0 -1.5 0.9 -2.5 2.9 -3.2 2.9 -9.7 0 -16.8 -2.9 -7.3 -3 -7.5 -1.6 -6.6 0.6 0.3 1 0.1 1 -0.4 0 -0.6 -0.6 -1.1 -1.3 -1.1 -0.7 0 -2.8 -3.7 -4.7 -8.2 -6.1 -15.1 -12.9 -28.8 -15.4 -31.3 -2.9 -2.9 -7.8 -3.3 -13.2 -1 -2 0.8 -4.1 1.2 -4.7 0.8 -0.5 -0.3 -0.7 -0.2 -0.4 0.4 0.8 1.2 -11.1 6.5 -12.6 5.6 -0.6 -0.3 -0.7 -0.1 -0.3 0.5 0.7 1.1 -0.7 1.6 -4.1 1.5 -0.7 -0.1 -1.1 0.2 -0.8 0.6 0.6 1.1 -12.2 5.4 -13.6 4.5 -0.7 -0.4 -0.9 -0.3 -0.5 0.4 1 1.6 -16 5.2 -29.3 6.1 -15.5 1.1 -37.9 -0.8 -36.5 -3 0.3 -0.5 -0.2 -0.6 -1 -0.3 -1.9 0.7 -13.2 -2.9 -20.6 -6.6 -7.9 -4 -17.1 -11.2 -23.4 -18.4 -6.1 -6.9 -12.8 -17.4 -12 -18.7 0.3 -0.5 0 -0.9 -0.5 -0.9 -3 0 -12.1 -32.4 -12.1 -43 l0 -3 58.3 0 c32 0.1 59.1 -0.1 60.2 -0.3 1.1 -0.3 4.7 -0.8 8 -1.1 7.6 -0.9 19.2 -3.8 27.6 -6.9 3.5 -1.4 7 -2.2 7.8 -1.9 0.8 0.2 1.1 0 0.7 -0.6 -0.3 -0.5 0.1 -1.2 0.9 -1.6 0.8 -0.3 1.5 -0.1 1.5 0.4 0 0.5 0.8 0.6 1.7 0.3 1.1 -0.4 1.3 -0.8 0.5 -1.1 -0.7 -0.2 2 -2.4 6 -4.9 4 -2.4 8.5 -5.6 10 -7 1.4 -1.4 2.8 -2.3 3 -2.1 0.2 0.1 2.1 -1.6 4.2 -3.9 2.1 -2.4 4.6 -4.3 5.5 -4.3 1.4 0 1.4 -0.2 0.1 -1 -1.3 -0.9 -0.7 -1.4 1.3 -1.1 0.4 0 0.6 -0.2 0.5 -0.6 -0.4 -1.6 2.3 -5.3 3.4 -4.7 0.6 0.4 0.8 0.3 0.5 -0.3 -0.3 -0.5 0.5 -2.7 2 -4.8 1.4 -2 4.2 -7.3 6.2 -11.6 2.1 -4.4 4.1 -7.6 4.6 -7.2 0.4 0.5 0.5 0.3 0.2 -0.3 -0.4 -0.6 0.5 -5.6 2 -11 2.4 -9 2.6 -11.6 2.7 -29.4 0 -17.3 -0.2 -20.6 -2.3 -29 -1.3 -5.2 -2.4 -10.5 -2.5 -11.7 0 -1.1 -0.4 -1.9 -0.7 -1.7 -0.6 0.3 -3.3 -7 -3.4 -9.1 0 -0.5 -0.3 -1.2 -0.6 -1.5 -1.6 -1.3 -6.9 -13.2 -6.3 -14.2 0.4 -0.6 0.3 -0.8 -0.3 -0.5 -0.5 0.3 -1.9 -1.1 -3.1 -3.1 -1.1 -2 -3.9 -6.1 -6.1 -9.1 -2.2 -3 -3.8 -5.8 -3.5 -6.3 0.3 -0.5 0.2 -0.7 -0.3 -0.6 -0.4 0.1 -5.1 -4 -10.4 -9.2 -5.2 -5.2 -12.4 -11.5 -16 -13.9 -7.1 -5 -26.4 -15.1 -28.6 -15.1 -0.8 0 -1.1 -0.5 -0.7 -1.2 0.4 -0.6 0.3 -0.8 -0.3 -0.5 -1.2 0.7 -8.3 -1.1 -8.3 -2.1 0 -0.4 -1 -0.8 -2.2 -0.8 -1.3 -0.1 -6.6 -1.1 -11.8 -2.3 -10.7 -2.4 -32.6 -4.1 -44 -3.4 -4.1 0.2 -11.7 1.1 -16.8 1.9 -5.2 0.8 -9.8 1.1 -10.4 0.8 -0.7 -0.4 -0.8 -0.2 -0.4 0.4 0.4 0.8 0 1.2 -1.2 1.2 -1 0 -5.2 1.1 -9.3 2.5 -4 1.4 -8 2.3 -8.7 2 -0.7 -0.2 -1 0 -0.7 0.5 0.3 0.6 0.1 1 -0.5 1 -1.7 0 -18.8 8.7 -23.8 12.2 -2.3 1.6 -4.7 2.6 -5.4 2.2 -0.6 -0.4 -0.8 -0.3 -0.4 0.4 0.8 1.3 -4.8 5.5 -5.9 4.4 -0.5 -0.4 -0.5 -0.2 -0.1 0.5 0.6 1.2 -4.6 5.6 -5.8 4.8 -0.3 -0.3 -0.4 -0.2 -0.1 0.2 0.3 0.3 -2.7 3.9 -6.5 8 -12.3 12.9 -25.8 32.8 -32.9 48.4 -1.5 3.3 -3.1 5.6 -3.6 5.2 -0.4 -0.4 -0.5 -0.3 -0.2 0.4 0.4 0.6 -0.8 5.1 -2.7 10 -6.7 17.7 -11.3 36 -14.1 56.8 -3.6 25.8 -3.9 67 -0.8 92.5 1 7.4 1.7 15.2 1.7 17.2 0 2 0.3 3.5 0.6 3.3 0.4 -0.2 1.4 3.1 2.4 7.4 0.9 4.3 2.9 11.9 4.5 17 1.8 5.8 2.5 9.1 1.7 9.1 -0.6 0 -0.4 0.6 0.5 1.3 2.2 1.7 7.2 13.5 6.3 14.9 -0.4 0.6 -0.3 0.9 0.2 0.6 0.5 -0.4 2.8 3 5.2 7.4 2.4 4.4 3.8 7.6 3.1 7.2 -0.7 -0.4 -1 -0.2 -0.7 0.7 0.3 0.8 1 1.3 1.6 1.2 0.6 -0.2 2.1 1.4 3.3 3.5 1.3 2 4.5 6.5 7.1 10 2.7 3.4 4.6 6.8 4.2 7.4 -0.4 0.7 -0.3 0.8 0.4 0.4 0.7 -0.4 1.2 -0.1 1.2 0.8 0 0.8 0.5 1.8 1.2 2.2 0.7 0.5 0.8 0.2 0.3 -0.7 -0.4 -0.8 1.1 0.4 3.3 2.5 2.3 2.2 3.9 4.3 3.6 4.8 -0.3 0.4 0.1 0.8 1 0.8 2.5 0 7.8 5.1 7.3 7.1 -0.3 1.2 0.1 1.7 1.4 1.6 1.4 -0.1 1.5 -0.4 0.7 -1.5 -0.6 -0.7 2.1 0.9 5.9 3.5 3.9 2.6 6.9 5 6.8 5.3 -0.2 0.3 0.4 0.6 1.4 0.7 2.7 0.2 8.2 3.8 7.3 4.8 -0.4 0.5 -0.1 0.5 0.5 0.1 0.7 -0.4 2.5 0 4 0.9 1.6 0.9 2 1.4 1 1.1 -1.1 -0.4 -1.6 -0.2 -1.2 0.5 0.4 0.6 1.3 0.8 2.1 0.5 2 -0.8 11.5 2.5 10.7 3.7 -0.3 0.6 -0.1 0.7 0.5 0.3 1.4 -0.8 9.3 1.4 8.7 2.5 -0.3 0.4 0.5 0.5 1.7 0.1 1.4 -0.3 1.9 -0.1 1.4 0.6 -0.4 0.7 0.1 0.9 1.5 0.7 1.1 -0.2 5 0.2 8.5 1.1 8.7 2 25.8 4.4 31.7 4.4 2.6 0 4.7 0.3 4.7 0.8 0 0.4 7 0.5 15.5 0.2 8.5 -0.3 15.5 -0.2 15.5 0.3z m8.8 0 c-1 -0.2 -2.6 -0.2 -3.5 0 -1 0.3 -0.2 0.5 1.7 0.5 1.9 0 2.7 -0.2 1.8 -0.5z m-203.8 -7.3 c-1.3 -0.8 -1.2 -1 0.2 -1 1 0 3.5 -1.6 5.6 -3.5 2.2 -1.9 4.1 -3.3 4.3 -3 0.3 0.2 0.6 -0.4 0.7 -1.3 1.3 -10.9 1.2 -16.9 -0.3 -29.9 -3 -26.9 -5.2 -34.2 -10.9 -37.3 -1.4 -0.7 -2.3 -1.7 -2 -2.1 0.2 -0.4 -26 -0.8 -58.3 -0.9 -32.3 0 -59.1 -0.4 -59.5 -0.8 -0.4 -0.4 -0.9 -70.7 -1 -156.2 l-0.3 -155.5 -2.3 -3.2 c-1.6 -2.3 -1.9 -3.3 -1 -3.6 0.9 -0.4 0.8 -0.6 -0.2 -0.6 -0.9 -0.1 -3.3 -1 -5.5 -2.1 -3.7 -1.9 -5.9 -2 -34.2 -2 -32.5 0 -34.8 0.3 -40.1 5.3 -5.5 5.1 -5.2 -7.5 -5.2 195.2 0 161.5 0.2 188 1.4 191 0.8 1.9 1.2 3.5 0.8 3.5 -1.4 0 9.2 7 10.7 7.1 1.2 0 1.1 0.3 -0.4 0.9 -1.1 0.5 42.3 0.9 98.5 0.9 64 0 100 -0.3 99 -0.9z m-187.7 -592.7 c-1.3 -0.2 -3.3 -0.2 -4.5 0 -1.3 0.2 -0.3 0.4 2.2 0.4 2.5 0 3.5 -0.2 2.3 -0.4z m22.5 0 c-2.1 -0.2 -5.7 -0.2 -8 0 -2.4 0.2 -0.7 0.4 3.7 0.4 4.4 0 6.3 -0.2 4.3 -0.4z m10 0 c-1 -0.2 -2.8 -0.2 -4 0 -1.3 0.2 -0.5 0.4 1.7 0.4 2.2 0.1 3.2 -0.1 2.3 -0.4z m26.5 0 c-4 -0.2 -10.7 -0.2 -15 0 -4.3 0.1 -1 0.3 7.2 0.3 8.3 0 11.8 -0.2 7.8 -0.3z m13.5 0 c-1 -0.2 -2.8 -0.2 -4 0 -1.3 0.2 -0.5 0.4 1.7 0.4 2.2 0.1 3.2 -0.1 2.3 -0.4z m8 0 c-1 -0.2 -2.8 -0.2 -4 0 -1.3 0.2 -0.5 0.4 1.7 0.4 2.2 0.1 3.2 -0.1 2.3 -0.4z m16 0 c-1 -0.2 -2.8 -0.2 -4 0 -1.3 0.2 -0.5 0.4 1.7 0.4 2.2 0.1 3.2 -0.1 2.3 -0.4z m26 0 c-4.2 -0.2 -11.4 -0.2 -16 0 -4.6 0.1 -1.1 0.3 7.7 0.3 8.8 0 12.5 -0.2 8.3 -0.3z m14 0 c-1 -0.2 -2.8 -0.2 -4 0 -1.3 0.2 -0.5 0.4 1.7 0.4 2.2 0.1 3.2 -0.1 2.3 -0.4z m14 0 c-2.1 -0.2 -5.7 -0.2 -8 0 -2.4 0.2 -0.7 0.4 3.7 0.4 4.4 0 6.3 -0.2 4.3 -0.4z m10 0 c-1 -0.2 -2.8 -0.2 -4 0 -1.3 0.2 -0.5 0.4 1.7 0.4 2.2 0.1 3.2 -0.1 2.3 -0.4z m8 0 c-1 -0.2 -2.8 -0.2 -4 0 -1.3 0.2 -0.5 0.4 1.7 0.4 2.2 0.1 3.2 -0.1 2.3 -0.4z m20 0 c-3.2 -0.2 -8.6 -0.2 -12 0 -3.5 0.2 -0.9 0.3 5.7 0.3 6.6 0 9.4 -0.1 6.3 -0.3z m12 0 c-1 -0.2 -2.8 -0.2 -4 0 -1.3 0.2 -0.5 0.4 1.7 0.4 2.2 0.1 3.2 -0.1 2.3 -0.4z m14 0 c-2.1 -0.2 -5.7 -0.2 -8 0 -2.4 0.2 -0.7 0.4 3.7 0.4 4.4 0 6.3 -0.2 4.3 -0.4z m10 0 c-1 -0.2 -2.8 -0.2 -4 0 -1.3 0.2 -0.5 0.4 1.7 0.4 2.2 0.1 3.2 -0.1 2.3 -0.4z m8 0 c-1 -0.2 -2.8 -0.2 -4 0 -1.3 0.2 -0.5 0.4 1.7 0.4 2.2 0.1 3.2 -0.1 2.3 -0.4z m50 0 c-8.6 -0.2 -23 -0.2 -32 0 -9 0.1 -1.9 0.3 15.7 0.3 17.6 0 24.9 -0.2 16.3 -0.3z m22 0 c-1 -0.2 -2.8 -0.2 -4 0 -1.3 0.2 -0.5 0.4 1.7 0.4 2.2 0.1 3.2 -0.1 2.3 -0.4z m8 0 c-1 -0.2 -2.8 -0.2 -4 0 -1.3 0.2 -0.5 0.4 1.7 0.4 2.2 0.1 3.2 -0.1 2.3 -0.4z m8 0 c-1 -0.2 -2.8 -0.2 -4 0 -1.3 0.2 -0.5 0.4 1.7 0.4 2.2 0.1 3.2 -0.1 2.3 -0.4z m16 0 c-1 -0.2 -2.8 -0.2 -4 0 -1.3 0.2 -0.5 0.4 1.7 0.4 2.2 0.1 3.2 -0.1 2.3 -0.4z m8 0 c-1 -0.2 -2.8 -0.2 -4 0 -1.3 0.2 -0.5 0.4 1.7 0.4 2.2 0.1 3.2 -0.1 2.3 -0.4z m11.5 0 c-1.3 -0.2 -3.3 -0.2 -4.5 0 -1.3 0.2 -0.3 0.4 2.2 0.4 2.5 0 3.5 -0.2 2.3 -0.4z m12.5 0 c-1 -0.2 -2.8 -0.2 -4 0 -1.3 0.2 -0.5 0.4 1.7 0.4 2.2 0.1 3.2 -0.1 2.3 -0.4z m10 0 c-1.6 -0.2 -4 -0.2 -5.5 0 -1.6 0.2 -0.3 0.4 2.7 0.4 3 0 4.3 -0.2 2.8 -0.4z m12.5 0 c-1.8 -0.2 -4.8 -0.2 -6.5 0 -1.8 0.2 -0.4 0.4 3.2 0.4 3.6 0 5 -0.2 3.3 -0.4z m23.5 0 c-2.1 -0.2 -5.7 -0.2 -8 0 -2.4 0.2 -0.7 0.4 3.7 0.4 4.4 0 6.3 -0.2 4.3 -0.4z m10 0 c-1 -0.2 -2.8 -0.2 -4 0 -1.3 0.2 -0.5 0.4 1.7 0.4 2.2 0.1 3.2 -0.1 2.3 -0.4z m14 0 c-1.5 -0.2 -4.2 -0.2 -6 0 -1.8 0.2 -0.6 0.4 2.7 0.4 3.3 0 4.8 -0.2 3.3 -0.4z"/>
  <path d="M476 362.2 c0 -4.9 3.3 -24.7 5.5 -33 1.4 -5.2 2.5 -9.6 2.5 -9.8 0 -0.3 0.5 -0.2 1.2 0.2 0.7 0.4 0.8 0.3 0.4 -0.5 -0.8 -1.3 5.2 -15.1 6.6 -15.1 0.5 0 0.7 -0.4 0.4 -0.8 -0.3 -0.5 0.7 -2.6 2.1 -4.8 7.5 -11.2 15.8 -18.7 26.8 -24.2 6.5 -3.3 13.2 -5.3 10.5 -3.2 -1.3 1 -1.2 1.1 0.3 0.6 1 -0.3 2.8 -0.6 4 -0.7 2 -0.1 2 -0.2 -0.3 -0.8 -2 -0.6 -1.3 -1 4 -1.8 11.7 -1.8 35 0.2 33.3 2.9 -0.4 0.8 0 0.9 1.1 0.5 2 -0.8 11.8 3.1 11.1 4.3 -0.3 0.4 0.3 0.7 1.3 0.6 1 0 1.6 0.5 1.4 1.5 -0.1 0.9 0.4 1.6 1.3 1.6 0.8 0 1.1 -0.5 0.8 -1.1 -0.4 -0.5 0.7 0 2.4 1.2 4.9 3.5 12.5 12.4 11.9 13.9 -0.3 0.8 -0.1 1.1 0.4 0.8 1.4 -0.9 6.7 10.6 8.1 17.4 1.8 8.8 0.8 20.8 -2.4 27.3 -5.3 10.8 -16.6 18.6 -32.6 22.7 -8 2 -10.9 2.1 -55.3 2.1 -44.6 0 -46.8 -0.1 -46.8 -1.8z m136.7 -45.4 c-0.2 -1.8 -0.4 -0.6 -0.4 2.7 0 3.3 0.2 4.8 0.4 3.3 0.2 -1.5 0.2 -4.2 0 -6z"/>
 </g>
</svg>